HIERARCHY
ROOT Hips
{
 OFFSET 0.000000 0.000000 0.000000
 CHANNELS 6 Xposition Yposition Zposition Yrotation Xrotation Zrotation
 JOINT Chest
 {
  OFFSET 0.000000 9.585900 0.002600
  CHANNELS 3 Yrotation Xrotation Zrotation
  JOINT Chest2
  {
   OFFSET 0.000000 9.601200 -0.005300
   CHANNELS 3 Yrotation Xrotation Zrotation
   JOINT Chest3
   {
    OFFSET 0.000000 9.561800 0.000000
    CHANNELS 3 Yrotation Xrotation Zrotation
    JOINT Chest4
    {
     OFFSET 0.000000 9.552100 0.000000
     CHANNELS 3 Yrotation Xrotation Zrotation
     JOINT Neck
     {
      OFFSET 0.000000 14.453000 0.000000
      CHANNELS 3 Yrotation Xrotation Zrotation
      JOINT Head
      {
       OFFSET 0.000000 8.936500 -0.011300
       CHANNELS 3 Yrotation Xrotation Zrotation
       End Site
       {
        OFFSET 0.000000 17.073600 -0.006000
       }
      }
     }
     JOINT RightCollar
     {
      OFFSET -2.921100 9.558500 0.000000
      CHANNELS 3 Yrotation Xrotation Zrotation
      JOINT RightShoulder
      {
       OFFSET -13.519700 0.000000 0.000000
       CHANNELS 3 Yrotation Xrotation Zrotation
       JOINT RightElbow
       {
        OFFSET 0.000000 -29.696600 0.000000
        CHANNELS 3 Yrotation Xrotation Zrotation
        JOINT RightWrist
        {
         OFFSET 0.000000 -24.004700 0.000000
         CHANNELS 3 Yrotation Xrotation Zrotation
         End Site
         {
          OFFSET 0.000000 -17.728500 0.000000
         }
        }
       }
      }
     }
     JOINT LeftCollar
     {
      OFFSET 2.921100 9.558500 0.000000
      CHANNELS 3 Yrotation Xrotation Zrotation
      JOINT LeftShoulder
      {
       OFFSET 13.519700 0.000000 0.000000
       CHANNELS 3 Yrotation Xrotation Zrotation
       JOINT LeftElbow
       {
        OFFSET 0.000000 -29.696600 0.000000
        CHANNELS 3 Yrotation Xrotation Zrotation
        JOINT LeftWrist
        {
         OFFSET 0.000000 -24.004700 0.000000
         CHANNELS 3 Yrotation Xrotation Zrotation
         End Site
         {
          OFFSET 0.000000 -17.728500 0.000000
         }
        }
       }
      }
     }
    }
   }
  }
 }
 JOINT RightHip
 {
  OFFSET -7.771700 -0.012900 -0.001300
  CHANNELS 3 Yrotation Xrotation Zrotation
  JOINT RightKnee
  {
   OFFSET 0.000000 -40.869800 0.001200
   CHANNELS 3 Yrotation Xrotation Zrotation
   JOINT RightAnkle
   {
    OFFSET 0.000000 -39.717900 0.002100
    CHANNELS 3 Yrotation Xrotation Zrotation
    JOINT RightToe
    {
     OFFSET 0.000000 -4.965400 11.033500
     CHANNELS 3 Yrotation Xrotation Zrotation
     End Site
     {
      OFFSET 0.000000 -1.423100 5.872300
     }
    }
   }
  }
 }
 JOINT LeftHip
 {
  OFFSET 7.771700 -0.012900 -0.001300
  CHANNELS 3 Yrotation Xrotation Zrotation
  JOINT LeftKnee
  {
   OFFSET 0.000000 -40.869800 0.001200
   CHANNELS 3 Yrotation Xrotation Zrotation
   JOINT LeftAnkle
   {
    OFFSET 0.000000 -39.717900 0.002100
    CHANNELS 3 Yrotation Xrotation Zrotation
    JOINT LeftToe
    {
     OFFSET 0.000000 -4.965400 11.033500
     CHANNELS 3 Yrotation Xrotation Zrotation
     End Site
     {
      OFFSET 0.000000 -1.423100 5.872300
     }
    }
   }
  }
 }
}
MOTION
Frames: 11
Frame Time: 0.008333
-46.775620 50.591356 2.088508 164.511398 -6.132695 -0.053870 3.748644 6.734206 0.371580 0.162491 0.314705 -0.027035 0.282971 0.544951 -0.045172 3.325080 6.415240 -0.362058 1.642276 18.399377 -0.302134 3.118135 -1.665895 -1.093675 1.546708 7.427064 0.946452 -7.145807 -12.483472 -6.651904 -47.970437 -69.608034 71.197907 -0.511248 0.754446 -11.260812 -6.356440 4.914991 0.609224 20.467810 -5.914663 1.270407 53.663847 -71.734986 -78.591247 -1.186253 10.488513 8.504642 -1.819050 -74.416637 -3.760005 -116.604260 81.405148 -115.008359 -1.613327 -14.839157 0.349988 -0.306477 0.909322 -0.115276 -10.136854 -77.929826 25.803872 110.433994 79.211883 106.869401 -16.586832 -21.915718 -0.088241 -0.346415 -0.970821 -0.163880
-46.779771 50.588520 2.090118 164.519286 -6.162726 -0.052015 3.741323 6.765497 0.370847 0.163060 0.317431 -0.027688 0.282486 0.543977 -0.044819 3.316976 6.454300 -0.369290 1.631948 18.377499 -0.323403 3.123118 -1.701049 -1.102282 1.538980 7.480554 0.957185 -7.128211 -12.572601 -6.683228 -47.997996 -69.591149 71.235240 -0.499961 0.742239 -11.266179 -6.377512 4.953060 0.587547 20.452609 -5.984223 1.301079 53.606805 -71.722962 -78.528712 -1.187513 10.490280 8.503732 -1.792599 -74.394181 -3.774097 -116.588923 81.393887 -115.013034 -1.612157 -14.832890 0.361830 -0.317432 0.906381 -0.110976 -10.096658 -77.903130 25.757236 110.439555 79.209463 106.871751 -16.570836 -21.933355 -0.089713 -0.342826 -0.952719 -0.160427
-46.785367 50.586599 2.091547 164.533902 -6.193246 -0.042072 3.727782 6.802402 0.359775 0.162087 0.315943 -0.027018 0.283667 0.552717 -0.046673 3.294255 6.528103 -0.381838 1.629904 18.317820 -0.344896 3.134146 -1.740039 -1.108110 1.555077 7.418367 0.968817 -7.121947 -12.595476 -6.690494 -47.748439 -69.573825 70.994489 -0.525019 0.656278 -11.356099 -6.380388 4.930994 0.584783 20.428515 -6.035822 1.325392 53.541407 -71.709057 -78.452251 -1.185441 10.478768 8.510198 -1.701551 -74.372871 -3.848401 -116.571157 81.372214 -115.011052 -1.633203 -14.822668 0.385088 -0.307759 0.899394 -0.106484 -10.040922 -77.876237 25.689522 110.446747 79.209117 106.874586 -16.592411 -21.950880 -0.081514 -0.346759 -0.939029 -0.160040
-46.794203 50.585540 2.093244 164.554116 -6.218404 -0.013878 3.704311 6.840175 0.329587 0.162003 0.314000 -0.026865 0.283424 0.557265 -0.047261 3.284047 6.553356 -0.387129 1.620588 18.299113 -0.363627 3.125373 -1.774068 -1.147945 1.561145 7.405840 0.974122 -7.098358 -12.612050 -6.715935 -47.668145 -69.533249 70.892635 -0.549388 0.601564 -11.423178 -6.395709 4.955192 0.569861 20.322162 -6.061083 1.351640 53.599660 -71.709094 -78.417761 -1.181896 10.434723 8.530392 -1.579472 -74.350551 -3.971247 -116.521163 81.367473 -114.999035 -1.618609 -14.828596 0.431620 -0.336560 0.908286 -0.127613 -9.914071 -77.854432 25.543105 110.440036 79.212028 106.859133 -16.617853 -21.969745 -0.074610 -0.376790 -0.924284 -0.159641
-46.798385 50.585072 2.099470 164.575658 -6.225980 -0.018910 3.683317 6.849046 0.332614 0.162200 0.320832 -0.027648 0.283523 0.561130 -0.047780 3.275018 6.574012 -0.392748 1.610959 18.281597 -0.379644 3.112097 -1.802840 -1.180431 1.556528 7.452390 0.977689 -7.024004 -12.654088 -6.742178 -47.670371 -69.495273 70.826820 -0.587245 0.543776 -11.512716 -6.411645 4.980474 0.555294 20.280913 -6.099781 1.355771 53.527740 -71.707430 -78.315833 -1.192971 10.438090 8.522084 -1.573307 -74.343051 -3.977431 -116.445508 81.359341 -114.936018 -1.621131 -14.828000 0.452006 -0.341458 0.912369 -0.133775 -9.954405 -77.844906 25.565439 110.439471 79.229659 106.846079 -16.576549 -22.002168 -0.080622 -0.344832 -0.905996 -0.150575
-46.802748 50.585562 2.104679 164.582310 -6.240354 -0.018648 3.677771 6.869023 0.330835 0.162075 0.322631 -0.028066 0.283170 0.564285 -0.048451 3.268230 6.590961 -0.393781 1.608610 18.260369 -0.387319 3.091211 -1.825301 -1.214997 1.561308 7.435662 0.978911 -6.984871 -12.638506 -6.749508 -47.601063 -69.457190 70.708875 -0.635504 0.485257 -11.635755 -6.422667 4.992568 0.544914 20.233019 -6.115301 1.354061 53.472756 -71.709216 -78.229414 -1.196597 10.480101 8.503791 -1.543208 -74.328897 -3.996591 -116.373324 81.357528 -114.874927 -1.625962 -14.825009 0.469633 -0.345478 0.915197 -0.140110 -9.949029 -77.827639 25.556861 110.461023 79.249802 106.859906 -16.545653 -22.049000 -0.082944 -0.321102 -0.882487 -0.145035
-46.806817 50.586725 2.110498 164.590036 -6.252905 -0.020275 3.675653 6.886853 0.332839 0.161846 0.324114 -0.028209 0.283040 0.566898 -0.048817 3.258691 6.599910 -0.393903 1.604983 18.247198 -0.395900 3.067852 -1.851019 -1.243409 1.561468 7.457305 0.974176 -6.962079 -12.663340 -6.744154 -47.508253 -69.405684 70.580891 -0.692460 0.422786 -11.795889 -6.423890 4.986611 0.542096 20.174199 -6.100812 1.348454 53.438311 -71.713388 -78.161319 -1.204521 10.446927 8.521049 -1.512937 -74.316340 -4.011801 -116.292257 81.353891 -114.803781 -1.637962 -14.820549 0.482068 -0.346053 0.918328 -0.137134 -9.959838 -77.810702 25.573576 110.500985 79.277252 106.884763 -16.533773 -22.097778 -0.071192 -0.319756 -0.842939 -0.145559
-46.811025 50.588454 2.116294 164.592723 -6.266695 -0.019834 3.675000 6.902961 0.334364 0.163012 0.326935 -0.024839 0.281361 0.568000 -0.052342 3.255202 6.599572 -0.395126 1.566647 18.256831 -0.422131 3.030360 -1.908500 -1.284873 1.556940 7.496300 0.969970 -6.904487 -12.663121 -6.735362 -47.505697 -69.376283 70.501913 -0.760296 0.347864 -11.986967 -6.437409 5.028614 0.523776 20.129063 -6.125518 1.338830 53.417500 -71.718369 -78.110582 -1.211233 10.452885 8.523484 -1.472816 -74.302878 -4.032412 -116.211549 81.350778 -114.734872 -1.646701 -14.814671 0.501313 -0.353577 0.923293 -0.137300 -9.943194 -77.799444 25.555829 110.528649 79.287938 106.911035 -16.508671 -22.137026 -0.067163 -0.353399 -0.817173 -0.154851
-46.815575 50.590498 2.122638 164.599372 -6.278028 -0.018146 3.671785 6.912412 0.340342 0.161607 0.328636 -0.028881 0.280303 0.572816 -0.052054 3.245377 6.619393 -0.401615 1.555129 18.233745 -0.431874 3.006240 -1.942338 -1.301326 1.562586 7.520293 0.960363 -6.861613 -12.658880 -6.713127 -47.528413 -69.355768 70.447679 -0.836931 0.254334 -12.197876 -6.443831 5.075270 0.502278 20.115726 -6.187621 1.331813 53.389944 -71.714542 -78.077700 -1.223352 10.465028 8.506860 -1.458992 -74.291653 -4.045140 -116.158695 81.356947 -114.698892 -1.624937 -14.809681 0.515695 -0.381236 0.923235 -0.146780 -9.917177 -77.791395 25.521232 110.547675 79.301966 106.927923 -16.459337 -22.177564 -0.063447 -0.331216 -0.810452 -0.157951
-46.818316 50.592829 2.128704 164.621096 -6.294880 -0.027396 3.655359 6.924592 0.353250 0.161624 0.329815 -0.028953 0.277071 0.578842 -0.055259 3.237290 6.636817 -0.405186 1.544548 18.205962 -0.436834 2.975198 -1.979436 -1.313951 1.569150 7.550777 0.950055 -6.852487 -12.662133 -6.686519 -47.553039 -69.334348 70.419625 -0.918264 0.139992 -12.424547 -6.437772 5.087838 0.497672 20.066192 -6.191536 1.304763 53.438405 -71.748383 -78.083065 -1.206046 10.485697 8.439591 -1.462584 -74.276956 -4.043536 -116.107336 81.347897 -114.648832 -1.637575 -14.796335 0.524046 -0.364935 0.904585 -0.150591 -9.945239 -77.774824 25.528389 110.545581 79.318581 106.921515 -16.419162 -22.221592 -0.055695 -0.303873 -0.837095 -0.155860
-46.822832 50.595243 2.134049 164.652373 -6.313644 -0.025337 3.630317 6.937541 0.355380 0.159145 0.332559 -0.030924 0.278194 0.580698 -0.053459 3.234083 6.650839 -0.405837 1.531971 18.187978 -0.443374 2.932414 -2.029905 -1.320464 1.563790 7.587266 0.934754 -6.852445 -12.684933 -6.664664 -47.577554 -69.299047 70.396670 -1.005074 0.006518 -12.666492 -6.440017 5.092020 0.491085 20.036882 -6.178656 1.273175 53.445761 -71.761802 -78.091103 -1.209433 10.456530 8.414840 -1.380996 -74.260646 -4.124221 -116.052739 81.325329 -114.584869 -1.680380 -14.784722 0.529942 -0.328308 0.894751 -0.134508 -9.932536 -77.756996 25.487121 110.501260 79.326883 106.873898 -16.435869 -22.246106 -0.046947 -0.321157 -0.857665 -0.155826
